<svg xmlns="http://www.w3.org/2000/svg" xmlns:xlink="http://www.w3.org/1999/xlink" aria-hidden="true" role="img" class="iconify iconify--logos" width="31.88" height="32" preserveAspectRatio="xMidYMid meet" viewBox="0 0 256 257"><defs><linearGradient id="IconifyId1813088fe1fbc01fb466" x1="-.828%" x2="57.636%" y1="7.652%" y2="78.411%"><stop offset="0%" stop-color="#FF00FF"></stop><stop offset="100%" stop-color="#FF0080"></stop></linearGradient></defs><path fill="url(#IconifyId1813088fe1fbc01fb466)" d="M128.001 0C57.317 0 0 57.307 0 128c0 70.696 57.307 128 128.001 128C198.697 256 256 198.697 256 128.001C256 57.314 198.687 0 128.001 0Zm.001 239.315c-61.881 0-112.313-50.438-112.313-112.315c0-61.87 50.454-112.313 112.313-112.313c60.534 0 112.313 50.454 112.313 112.313c0 61.878-50.779 112.315-112.313 112.315Z"></path><path fill="#FF00FF" d="M128 28.148c-55.168 0-99.852 44.684-99.852 99.852c0 55.168 44.684 99.852 99.852 99.852c55.168 0 99.852-44.684 99.852-99.852c0-55.168-44.684-99.852-99.852-99.852Zm38.403 130.556h-30.783v30.783h-15.24v-30.783h-30.783v-15.24h30.783V92.361h15.24v30.783h30.783v15.24Z"></path></svg>
